<?xml version="1.0" encoding="utf-8"?>
<!-- Generator: Adobe Illustrator 23.0.3, SVG Export Plug-In . SVG Version: 6.00 Build 0)  -->
<svg version="1.1" id="Layer_1" xmlns="http://www.w3.org/2000/svg" xmlns:xlink="http://www.w3.org/1999/xlink" x="0px" y="0px"
	 viewBox="0 0 218 73" style="enable-background:new 0 0 218 73;" xml:space="preserve">
<style type="text/css">
	.st0{clip-path:url(#SVGID_2_);}
	.st1{clip-path:url(#SVGID_4_);fill:#B1B3B6;}
	.st2{clip-path:url(#SVGID_4_);}
	.st3{clip-path:url(#SVGID_4_);fill:#FFFFFF;}
</style>
<g id="App_Store_Black_1_">
	<g>
		<defs>
			<rect id="SVGID_1_" width="218.4" height="73"/>
		</defs>
		<clipPath id="SVGID_2_">
			<use xlink:href="#SVGID_1_"  style="overflow:visible;"/>
		</clipPath>
		<g class="st0">
			<defs>
				<rect id="SVGID_3_" width="218.4" height="73"/>
			</defs>
			<clipPath id="SVGID_4_">
				<use xlink:href="#SVGID_3_"  style="overflow:visible;"/>
			</clipPath>
			<path class="st1" d="M201,0H17.4c-0.7,0-1.3,0-2,0c-0.6,0-1.1,0-1.7,0c-1.2,0-2.4,0.1-3.7,0.3C8.8,0.6,7.7,0.9,6.6,1.5
				c-1.1,0.6-2.1,1.3-3,2.2C2.8,4.5,2,5.5,1.5,6.6c-0.6,1.1-0.9,2.3-1.1,3.5c-0.2,1.2-0.3,2.4-0.3,3.7c0,0.6,0,1.1,0,1.7v2v38.2v2
				c0,0.6,0,1.1,0,1.7c0,1.2,0.1,2.4,0.3,3.7c0.2,1.2,0.6,2.4,1.1,3.5c0.6,1.1,1.3,2.1,2.1,2.9c0.9,0.9,1.9,1.6,3,2.2
				c1.1,0.6,2.2,0.9,3.5,1.2c1.2,0.2,2.4,0.3,3.7,0.3c0.6,0,1.1,0,1.7,0c0.7,0,1.3,0,2,0H201c0.7,0,1.3,0,2,0c0.6,0,1.1,0,1.7,0
				c1.2,0,2.4-0.1,3.6-0.3c1.2-0.2,2.4-0.6,3.5-1.2c1.1-0.6,2.1-1.3,3-2.2c0.9-0.9,1.6-1.9,2.2-2.9c0.6-1.1,0.9-2.3,1.1-3.5
				c0.2-1.2,0.3-2.4,0.3-3.7c0-0.6,0-1.1,0-1.7c0-0.7,0-1.3,0-2V17.4c0-0.7,0-1.3,0-2c0-0.6,0-1.1,0-1.7c0-1.2-0.1-2.4-0.3-3.7
				c-0.2-1.2-0.6-2.4-1.1-3.5c-0.6-1.1-1.3-2.1-2.2-3c-0.9-0.9-1.9-1.6-3-2.2c-1.1-0.6-2.3-0.9-3.5-1.1c-1.2-0.2-2.4-0.3-3.6-0.3
				c-0.6,0-1.1,0-1.7,0C202.3,0,201.7,0,201,0"/>
			<path class="st2" d="M15.4,71.4c-0.6,0-1.1,0-1.6,0c-1,0-2.2-0.1-3.4-0.3c-1.1-0.2-2.1-0.5-3-1c-1-0.5-1.8-1.1-2.5-1.9
				c-0.8-0.7-1.4-1.6-1.9-2.5c-0.5-0.9-0.8-1.9-1-3c-0.2-1.2-0.3-2.5-0.3-3.4c0-0.4,0-1.7,0-1.7V15.4c0,0,0-1.3,0-1.6
				c0-1,0.1-2.2,0.3-3.4c0.2-1.1,0.5-2.1,1-3c0.5-1,1.1-1.8,1.9-2.6C5.5,4,6.4,3.4,7.3,2.9c0.9-0.5,1.9-0.8,3-1
				c1.2-0.2,2.5-0.3,3.4-0.3l1.6,0H203l1.7,0c0.9,0,2.2,0.1,3.4,0.3c1.1,0.2,2.1,0.5,3,1c0.9,0.5,1.8,1.1,2.5,1.9
				c0.7,0.7,1.4,1.6,1.9,2.6c0.5,0.9,0.8,1.9,1,3c0.2,1.2,0.3,2.3,0.3,3.4c0,0.5,0,1.1,0,1.6c0,0.7,0,1.3,0,2v38.2c0,0.7,0,1.3,0,2
				c0,0.6,0,1.1,0,1.7c0,1.1-0.1,2.3-0.3,3.4c-0.2,1.1-0.5,2.1-1,3c-0.5,0.9-1.1,1.8-1.9,2.5c-0.8,0.8-1.6,1.4-2.6,1.9
				c-0.9,0.5-1.9,0.8-3,1c-1.2,0.2-2.4,0.3-3.4,0.3c-0.5,0-1.1,0-1.6,0l-2,0L15.4,71.4z"/>
			<path class="st3" d="M45.2,37c0-5,4.1-7.5,4.3-7.6c-2.4-3.4-6-3.9-7.3-3.9c-3.1-0.3-6,1.8-7.6,1.8c-1.6,0-4-1.8-6.6-1.7
				c-3.3,0.1-6.5,2-8.2,5c-3.5,6.1-0.9,15.1,2.5,20c1.7,2.4,3.7,5.1,6.3,5c2.5-0.1,3.5-1.6,6.5-1.6c3,0,3.9,1.6,6.6,1.6
				c2.7,0,4.4-2.4,6.1-4.9c2-2.8,2.7-5.5,2.8-5.6C50.5,45.1,45.3,43.1,45.2,37"/>
			<path class="st3" d="M40.2,22.3c1.4-1.7,2.3-4,2-6.4c-2,0.1-4.4,1.4-5.9,3c-1.3,1.5-2.4,3.9-2.1,6.1C36.5,25.2,38.8,24,40.2,22.3
				"/>
			<path class="st3" d="M77.2,49.5h-8.6l-2.1,6.1h-3.7L71,33h3.8L83,55.7h-3.7L77.2,49.5z M69.5,46.7h6.8l-3.4-9.9h-0.1L69.5,46.7z"
				/>
			<path class="st3" d="M100.7,47.4c0,5.1-2.7,8.4-6.9,8.4c-2.4,0-4.2-1.1-5.2-2.9h-0.1v8.2h-3.4v-22h3.3v2.7h0.1
				c0.9-1.8,3-2.9,5.3-2.9C97.9,39,100.7,42.3,100.7,47.4 M97.2,47.4c0-3.3-1.7-5.5-4.4-5.5c-2.6,0-4.3,2.2-4.3,5.5
				c0,3.3,1.7,5.6,4.3,5.6C95.5,53,97.2,50.8,97.2,47.4"/>
			<path class="st3" d="M118.9,47.4c0,5.1-2.7,8.4-6.9,8.4c-2.4,0-4.2-1.1-5.2-2.9h-0.1v8.2h-3.4v-22h3.3v2.7h0.1
				c0.9-1.8,3-2.9,5.3-2.9C116.1,39,118.9,42.3,118.9,47.4 M115.4,47.4c0-3.3-1.7-5.5-4.4-5.5c-2.6,0-4.3,2.2-4.3,5.5
				c0,3.3,1.7,5.6,4.3,5.6C113.6,53,115.4,50.8,115.4,47.4"/>
			<path class="st3" d="M130.9,49.3c0.3,2.2,2.4,3.7,5.4,3.7c2.9,0,4.9-1.5,4.9-3.5c0-1.8-1.2-2.8-4.2-3.5l-2.9-0.7
				c-4.2-1-6.1-3-6.1-6.1c0-3.9,3.4-6.6,8.2-6.6c4.8,0,8.1,2.7,8.2,6.6H141c-0.2-2.3-2.1-3.6-4.8-3.6c-2.7,0-4.6,1.4-4.6,3.4
				c0,1.6,1.2,2.5,4.1,3.3l2.5,0.6c4.6,1.1,6.6,3,6.6,6.3c0,4.2-3.4,6.9-8.7,6.9c-5,0-8.4-2.6-8.6-6.7H130.9z"/>
			<path class="st3" d="M152.1,35.2v3.9h3.1v2.7h-3.1v9.1c0,1.4,0.6,2.1,2,2.1c0.3,0,0.9,0,1.1-0.1v2.7c-0.4,0.1-1.1,0.2-1.9,0.2
				c-3.3,0-4.7-1.3-4.7-4.5v-9.5h-2.4v-2.7h2.4v-3.9H152.1z"/>
			<path class="st3" d="M157.1,47.4c0-5.2,3.1-8.5,7.8-8.5c4.8,0,7.8,3.3,7.8,8.5c0,5.2-3,8.5-7.8,8.5S157.1,52.6,157.1,47.4
				 M169.3,47.4c0-3.6-1.6-5.7-4.4-5.7c-2.7,0-4.4,2.1-4.4,5.7c0,3.6,1.6,5.7,4.4,5.7C167.7,53.1,169.3,51,169.3,47.4"/>
			<path class="st3" d="M175.5,39.1h3.2v2.8h0.1c0.5-1.9,2-3,4-3c0.5,0,0.9,0.1,1.2,0.1v3.2c-0.3-0.1-0.9-0.2-1.5-0.2
				c-2.2,0-3.5,1.5-3.5,3.8v9.8h-3.4V39.1z"/>
			<path class="st3" d="M199.6,50.8c-0.5,3-3.4,5.1-7.1,5.1c-4.8,0-7.8-3.2-7.8-8.4c0-5.2,3-8.5,7.6-8.5c4.6,0,7.4,3.1,7.4,8.2v1.2
				h-11.7v0.2c0,2.8,1.8,4.7,4.4,4.7c1.9,0,3.4-0.9,3.8-2.3H199.6z M188.2,45.9h8.3c-0.1-2.5-1.7-4.2-4.1-4.2
				C190,41.7,188.3,43.4,188.2,45.9"/>
			<path class="st3" d="M69,15.9c3.2,0,5.1,2,5.1,5.4c0,3.5-1.9,5.5-5.1,5.5h-3.9V15.9H69z M66.8,25.3h2.1c2.3,0,3.6-1.4,3.6-3.9
				c0-2.5-1.3-3.9-3.6-3.9h-2.1V25.3z"/>
			<path class="st3" d="M76.1,22.7c0-2.6,1.5-4.3,3.9-4.3c2.4,0,3.9,1.6,3.9,4.3c0,2.7-1.5,4.3-3.9,4.3C77.5,27,76.1,25.4,76.1,22.7
				 M82.2,22.7c0-1.8-0.8-2.8-2.2-2.8c-1.4,0-2.2,1-2.2,2.8c0,1.8,0.8,2.8,2.2,2.8C81.4,25.5,82.2,24.5,82.2,22.7"/>
			<polygon class="st3" points="94.1,26.8 92.4,26.8 90.7,20.8 90.6,20.8 88.9,26.8 87.3,26.8 85,18.6 86.6,18.6 88.1,24.9 
				88.2,24.9 89.9,18.6 91.5,18.6 93.2,24.9 93.3,24.9 94.8,18.6 96.4,18.6 			"/>
			<path class="st3" d="M98.3,18.6h1.6v1.3h0.1c0.4-0.9,1.2-1.5,2.5-1.5c1.8,0,2.8,1.1,2.8,3.1v5.3h-1.6v-4.9c0-1.3-0.6-2-1.8-2
				c-1.2,0-2,0.8-2,2.1v4.8h-1.6V18.6z"/>
			<rect x="107.8" y="15.4" class="st3" width="1.6" height="11.4"/>
			<path class="st3" d="M111.7,22.7c0-2.6,1.5-4.3,3.9-4.3c2.4,0,3.9,1.6,3.9,4.3c0,2.7-1.5,4.3-3.9,4.3
				C113.2,27,111.7,25.4,111.7,22.7 M117.8,22.7c0-1.8-0.8-2.8-2.2-2.8c-1.4,0-2.2,1-2.2,2.8c0,1.8,0.8,2.8,2.2,2.8
				C117,25.5,117.8,24.5,117.8,22.7"/>
			<path class="st3" d="M121.2,24.5c0-1.5,1.1-2.3,3.1-2.5l2.2-0.1v-0.7c0-0.9-0.6-1.4-1.7-1.4c-0.9,0-1.5,0.3-1.7,0.9h-1.6
				c0.2-1.4,1.5-2.3,3.4-2.3c2.1,0,3.2,1,3.2,2.8v5.6h-1.6v-1.2h-0.1c-0.5,0.8-1.4,1.3-2.5,1.3C122.3,27,121.2,26,121.2,24.5
				 M126.5,23.8v-0.7l-2,0.1c-1.1,0.1-1.6,0.5-1.6,1.2c0,0.7,0.6,1.2,1.5,1.2C125.6,25.6,126.5,24.8,126.5,23.8"/>
			<path class="st3" d="M130.2,22.7c0-2.6,1.3-4.2,3.4-4.2c1.1,0,2.1,0.5,2.5,1.4h0.1v-4.5h1.6v11.4h-1.6v-1.3h-0.1
				c-0.5,0.9-1.4,1.4-2.6,1.4C131.5,27,130.2,25.3,130.2,22.7 M131.9,22.7c0,1.7,0.8,2.8,2.2,2.8c1.4,0,2.2-1.1,2.2-2.8
				c0-1.7-0.9-2.8-2.2-2.8C132.7,19.9,131.9,21,131.9,22.7"/>
			<path class="st3" d="M144.6,22.7c0-2.6,1.5-4.3,3.9-4.3c2.4,0,3.9,1.6,3.9,4.3c0,2.7-1.5,4.3-3.9,4.3
				C146.1,27,144.6,25.4,144.6,22.7 M150.7,22.7c0-1.8-0.8-2.8-2.2-2.8c-1.4,0-2.2,1-2.2,2.8c0,1.8,0.8,2.8,2.2,2.8
				C149.9,25.5,150.7,24.5,150.7,22.7"/>
			<path class="st3" d="M154.5,18.6h1.6v1.3h0.1c0.4-0.9,1.2-1.5,2.5-1.5c1.8,0,2.8,1.1,2.8,3.1v5.3h-1.6v-4.9c0-1.3-0.6-2-1.8-2
				s-2,0.8-2,2.1v4.8h-1.6V18.6z"/>
			<path class="st3" d="M170.7,16.6v2.1h1.8V20h-1.8v4.2c0,0.9,0.4,1.2,1.2,1.2c0.2,0,0.4,0,0.6,0v1.4c-0.3,0-0.6,0.1-0.9,0.1
				c-1.8,0-2.5-0.6-2.5-2.2V20h-1.3v-1.4h1.3v-2.1H170.7z"/>
			<path class="st3" d="M174.7,15.4h1.6v4.5h0.1c0.4-0.9,1.3-1.5,2.5-1.5c1.8,0,2.8,1.1,2.8,3.1v5.3h-1.6v-4.9c0-1.3-0.6-2-1.8-2
				c-1.3,0-2.1,0.8-2.1,2.1v4.8h-1.6V15.4z"/>
			<path class="st3" d="M191.2,24.6c-0.4,1.5-1.7,2.4-3.6,2.4c-2.4,0-3.8-1.6-3.8-4.2s1.5-4.3,3.8-4.3c2.3,0,3.7,1.6,3.7,4.1v0.6
				h-5.8v0.1c0.1,1.4,0.9,2.4,2.2,2.4c1,0,1.7-0.4,2-1H191.2z M185.5,22h4.2c0-1.3-0.8-2.1-2-2.1C186.4,19.8,185.6,20.7,185.5,22"/>
		</g>
	</g>
</g>
</svg>
