<?xml version="1.0" encoding="utf-8"?>
<!-- Generator: Adobe Illustrator 23.0.1, SVG Export Plug-In . SVG Version: 6.00 Build 0)  -->
<svg version="1.1" id="Layer_1" xmlns="http://www.w3.org/2000/svg" xmlns:xlink="http://www.w3.org/1999/xlink" x="0px" y="0px"
	 viewBox="0 0 2570.33 1031.17" style="enable-background:new 0 0 2570.33 1031.17;" xml:space="preserve">
<style type="text/css">
	.st0{fill:#183962;fill-opacity:0;}
	.st1{fill:#183962;}
	.st2{fill:#FFFFFF;}
	.st3{fill:url(#SVGID_1_);}
	.st4{fill:url(#SVGID_2_);}
	.st5{fill:#EF1813;}
	.st6{opacity:0.5;fill:#455555;enable-background:new    ;}
</style>
<g>
	<rect x="0.65" y="0.85" class="st0" width="2571" height="1030"/>
	<g>
		<g>
			<g>
				<polygon class="st1" points="950.51,606.69 801.86,606.69 801.86,252.07 870.27,252.07 870.42,538.22 950.64,538.22 				"/>
				<path class="st1" d="M1258.63,406.66c-7.55-17.61-17.89-32.66-30.99-45.16c-13.12-12.5-28.72-22.15-46.83-28.97
					c-18.11-6.81-37.4-10.22-57.86-10.22c-20.47,0-39.84,3.41-58.12,10.22c-18.27,6.82-34.13,16.47-47.54,28.97
					c-13.42,12.5-24.13,27.55-32.11,45.16c-7.99,17.61-12.11,37.2-12.38,58.79c-0.27,21.58,3.37,41.28,10.92,59.07
					c7.54,17.81,17.87,33.04,30.99,45.73c13.11,12.69,28.72,22.63,46.82,29.82s37.39,10.79,57.85,10.79s39.84-3.6,58.12-10.79
					s34.13-17.13,47.56-29.82c13.42-12.68,24.13-27.92,32.12-45.73c7.98-17.79,12.12-37.49,12.39-59.07
					C1269.82,443.87,1266.17,424.27,1258.63,406.66z M1194.97,497.26c-3.36,10.61-8.31,20.08-14.85,28.4
					c-6.55,8.33-14.78,15.15-24.7,20.45c-9.93,5.31-21.7,7.95-35.34,7.95c-13.65,0-25.37-2.64-35.15-7.95
					c-9.79-5.3-17.85-12.11-24.19-20.45c-6.35-8.33-11.06-17.8-14.14-28.4c-3.09-10.59-4.57-21.2-4.44-31.81
					c0.13-10.6,1.87-21.11,5.22-31.52c3.35-10.41,8.29-19.78,14.84-28.12c6.54-8.32,14.77-15.05,24.7-20.16
					c9.92-5.11,21.7-7.67,35.34-7.67c13.65,0,25.36,2.55,35.15,7.67c9.79,5.11,17.85,11.84,24.2,20.16
					c6.34,8.34,11.05,17.71,14.15,28.12c3.08,10.42,4.57,20.93,4.44,31.52C1200.06,476.06,1198.32,486.66,1194.97,497.26z"/>
				<path class="st1" d="M1457.19,402.97c-6.05-7.95-14.38-14.86-24.97-20.73c-10.6-5.87-22.15-8.8-34.66-8.8
					c-11,0-21.04,2.27-30.15,6.81c-9.1,4.54-13.67,12.12-13.69,22.72c-0.02,10.6,4.98,18.09,15.02,22.43
					c10.03,4.36,24.71,8.81,44.03,13.35c10.23,2.27,20.55,5.31,30.97,9.09c10.41,3.79,19.88,8.8,28.39,15.05
					c8.52,6.25,15.41,14.02,20.71,23.29c5.28,9.28,7.92,20.55,7.89,33.79c-0.04,16.67-3.19,30.77-9.47,42.32
					s-14.64,20.93-25.07,28.12c-10.44,7.2-22.58,12.41-36.41,15.62c-13.85,3.21-28.15,4.83-42.93,4.83
					c-21.23,0-41.87-3.89-61.94-11.64c-20.08-7.76-26.55-15.39-39.78-29.78l34.82-45.48c7.55,9.85,17.39,17.99,29.51,24.42
					c12.11,6.44,25.57,9.66,40.34,9.66c4.92,0,9.95-0.57,15.07-1.7c5.12-1.14,9.86-2.93,14.22-5.4c4.36-2.46,7.87-5.77,10.54-9.94
					c2.65-4.16,4-9.27,4.01-15.34c0.02-11.36-5.18-19.5-15.58-24.43c-10.42-4.92-26.04-9.84-46.87-14.77
					c-10.23-2.27-20.17-5.2-29.83-8.81c-9.66-3.59-18.27-8.32-25.84-14.2c-7.58-5.87-13.62-13.15-18.15-21.87
					c-4.53-8.71-6.78-19.5-6.76-32.38c0.03-15.14,3.18-28.21,9.46-39.2c6.28-10.98,14.54-19.97,24.79-26.98
					c10.25-7,21.81-12.21,34.71-15.62c12.89-3.41,26.16-5.11,39.8-5.11c19.7,0,38.93,3.41,57.68,10.22
					c18.75,6.82,33.6,17.24,44.57,31.24L1457.19,402.97L1457.19,402.97z"/>
				<path class="st1" d="M1800.27,405.52c-6.1-18.36-14.84-33.7-26.22-46.01c-11.39-12.3-25.05-21.58-40.97-27.84
					c-15.93-6.25-33.36-9.37-52.31-9.37c-20.47,0-39.62,3.51-57.44,10.51c-17.83,7.01-33.38,16.85-46.63,29.54
					c-13.26,12.69-23.85,28.03-31.77,46.01c-7.92,17.99-12.2,37.97-12.84,59.93c-0.65,22.35,2.45,42.32,9.33,59.93
					c6.87,17.61,16.67,32.47,29.39,44.59s27.88,21.49,45.51,28.11c17.61,6.62,37.03,9.94,58.26,9.94
					c51.17,0,90.73-18.18,118.71-54.53l-44.41-36.35c-7.91,10.99-17.82,19.6-29.75,25.85c-11.94,6.25-26.43,9.37-43.48,9.37
					c-9.86,0-19.28-1.7-28.28-5.11c-8.99-3.41-17.01-8.04-24.03-13.92c-7.03-5.87-12.61-12.87-16.72-21.02
					c-4.12-8.14-6.42-17.13-6.88-26.98h207.5c0.46-3.03,0.75-6.05,0.83-9.09c0.09-3.03,0.18-6.05,0.27-9.09
					C1809.05,445.38,1806.36,423.9,1800.27,405.52z M1741,439.32h-139.85c2.08-19.31,10.41-35.12,24.98-47.43
					c14.57-12.3,32.09-18.46,52.56-18.46c10.99,0,20.5,1.8,28.55,5.39c8.04,3.6,14.62,8.43,19.76,14.48
					c5.12,6.06,8.8,13.07,11.04,21.02C1740.27,422.28,1741.26,430.61,1741,439.32z"/>
				<polygon class="st1" points="1950.57,606.48 1950.55,252.07 2020.04,252.07 2020.06,606.48 				"/>
				<path class="st1" d="M2225.93,330.26l-0.11,58.82h-68.58l-0.25,122.38c-0.02,12.12,2.13,22.15,6.48,30.1
					c4.34,7.95,10.52,11.93,25.68,11.93c4.55,0,8.04-0.47,13.35-1.42c5.3-0.94,10.04-2.36,14.22-4.26l2.17,53.39
					c-6.07,2.27-13.28,4.07-21.61,5.39c-8.34,1.32-16.3,1.99-23.88,1.99c-18.19,0-32.97-2.56-44.33-7.67s-20.35-12.11-26.96-21.01
					c-6.62-8.89-9.36-19.12-11.79-30.67c-2.45-11.54-1.5-23.95-1.48-37.2l-0.1-122.94h-34.61l0.11-57.39h34.25l-0.2-80.39h69.23
					l-0.16,78.96h68.57L2225.93,330.26L2225.93,330.26z"/>
				<path class="st1" d="M2328.91,593.25c-8.93,8.72-19.64,13.07-32.15,13.07c-6.07,0-11.85-1.14-17.33-3.41
					c-5.49-2.27-10.32-5.3-14.48-9.09c-4.17-3.78-7.47-8.33-9.92-13.63c-2.46-5.3-3.67-10.98-3.66-17.04
					c0.03-12.11,4.5-22.52,13.42-31.24c8.92-8.71,19.64-13.07,32.15-13.07c12.12,0,22.73,4.17,31.81,12.5s13.61,18.56,13.58,30.67
					C2342.31,574.14,2337.83,584.55,2328.91,593.25L2328.91,593.25z"/>
				<polygon class="st1" points="2260.41,480.39 2260.5,251.72 2329.08,251.72 2328.99,480.39 				"/>
			</g>
			<g>
				<ellipse class="st2" cx="433.09" cy="277" rx="160" ry="116"/>
				<g>
					
						<radialGradient id="SVGID_1_" cx="2725.9907" cy="-1140.5865" r="89.6033" gradientTransform="matrix(4.006251e-03 -1 1.6142 6.466963e-03 2263.2896 2999.1084)" gradientUnits="userSpaceOnUse">
						<stop  offset="0.9151" style="stop-color:#FFFFFF"/>
						<stop  offset="0.944" style="stop-color:#FCFCFC"/>
						<stop  offset="0.9646" style="stop-color:#F3F3F3"/>
						<stop  offset="0.9827" style="stop-color:#E3E3E3"/>
						<stop  offset="0.9992" style="stop-color:#CDCDCD"/>
						<stop  offset="1" style="stop-color:#CCCCCC"/>
					</radialGradient>
					<ellipse class="st3" cx="433.09" cy="262.16" rx="136.81" ry="85.72"/>
					
						<linearGradient id="SVGID_2_" gradientUnits="userSpaceOnUse" x1="433.09" y1="143.8641" x2="433.09" y2="665.6303" gradientTransform="matrix(1 0 0 1 0 32)">
						<stop  offset="0" style="stop-color:#FF9400"/>
						<stop  offset="0.4263" style="stop-color:#FE9101"/>
						<stop  offset="0.7305" style="stop-color:#FA8803"/>
						<stop  offset="0.9965" style="stop-color:#F47806"/>
						<stop  offset="1" style="stop-color:#F47806"/>
					</linearGradient>
					<path class="st4" d="M597.54,150H268.63C204.22,150,152,202.22,152,266.63v328.92c0,64.41,52.22,116.63,116.63,116.63h328.92
						c64.41,0,116.63-52.22,116.63-116.63V266.63C714.17,202.22,661.96,150,597.54,150z M433.09,347.91
						c-75.56,0-136.81-38.39-136.81-85.74s61.25-85.74,136.81-85.74s136.81,38.39,136.81,85.74S508.65,347.91,433.09,347.91z"/>
					<path class="st5" d="M433.09,327.4L433.09,327.4c-3.18,0-5.76-2.58-5.76-5.76V202.71c0-3.18,2.58-5.76,5.76-5.76l0,0
						c3.18,0,5.76,2.58,5.76,5.76v118.93C438.85,324.82,436.27,327.4,433.09,327.4z"/>
					<g>
						<g>
							<path class="st1" d="M402.81,222.74c-2.86,0.77-9.26-12.91-9.6-17.54c-0.29-4.04,3.89-4.9,3.89-4.9s4.05-1.35,5.82,2.3
								c2.02,4.17,3.32,19.22,0.46,19.99"/>
							<path class="st1" d="M370.69,228.72c-2.51,1.18-9.29-7.45-9.94-10.76c-0.57-2.9,3.12-4.42,3.12-4.42s3.53-1.86,5.4,0.42
								c2.13,2.61,4.43,13.34,1.93,14.52"/>
							<path class="st1" d="M347.56,241.69c-1.79,1.56-9.02-3.51-10.21-5.95c-1.04-2.14,1.64-4.27,1.64-4.27s2.49-2.36,4.46-1.03
								c2.25,1.52,6.27,9.38,4.47,10.94"/>
						</g>
						<g>
							<path class="st1" d="M463.36,222.74c2.86,0.77,9.26-12.91,9.6-17.54c0.29-4.04-3.89-4.9-3.89-4.9s-4.05-1.35-5.82,2.3
								c-2.02,4.17-3.32,19.22-0.46,19.99"/>
							<path class="st1" d="M495.48,228.72c2.51,1.18,9.29-7.45,9.94-10.76c0.57-2.9-3.12-4.42-3.12-4.42s-3.53-1.86-5.4,0.42
								c-2.13,2.61-4.43,13.34-1.93,14.52"/>
							<path class="st1" d="M518.61,241.69c1.79,1.56,9.02-3.51,10.21-5.95c1.04-2.14-1.64-4.27-1.64-4.27s-2.49-2.36-4.46-1.03
								c-2.25,1.52-6.27,9.38-4.47,10.94"/>
						</g>
					</g>
				</g>
			</g>
		</g>
		<path class="st6" d="M938.93,838.79h-18.49l-31-104.81h-0.36l-30.82,104.81h-18.49L802.25,710.4h18.13l28.36,102.64h0.36
			l30.18-102.64h19.94l30.17,102.64h0.36l28.37-102.64h18.13L938.93,838.79L938.93,838.79z M986.24,801.8
			c0,3.75,0.81,7.16,2.45,10.25c1.63,3.08,3.78,5.71,6.43,7.89c2.65,2.18,5.74,3.87,9.24,5.08s7.13,1.81,10.87,1.81
			c5.08,0,9.48-1.18,13.23-3.54c3.74-2.36,7.19-5.47,10.33-9.34l12.33,9.43c-9.06,11.73-21.75,17.59-38.06,17.59
			c-6.77,0-12.9-1.15-18.4-3.45c-5.5-2.29-10.15-5.47-13.96-9.52c-3.81-4.05-6.74-8.82-8.79-14.33c-2.06-5.5-3.08-11.45-3.08-17.86
			s1.12-12.36,3.36-17.86c2.23-5.5,5.31-10.27,9.24-14.33c3.93-4.05,8.61-7.22,14.05-9.52c5.44-2.3,11.36-3.45,17.76-3.45
			c7.61,0,14.05,1.33,19.3,3.99s9.57,6.14,12.96,10.42c3.38,4.29,5.83,9.13,7.34,14.51s2.27,10.85,2.27,16.41v5.8h-68.87
			L986.24,801.8L986.24,801.8z M1035.99,778.77c-1.03-3.02-2.57-5.65-4.62-7.89c-2.06-2.24-4.62-3.99-7.7-5.26s-6.68-1.9-10.78-1.9
			c-3.99,0-7.65,0.76-10.97,2.27c-3.32,1.51-6.13,3.48-8.43,5.89c-2.3,2.42-4.08,5.11-5.35,8.07c-1.27,2.96-1.9,5.89-1.9,8.8h51.47
			C1037.59,785.12,1037.02,781.79,1035.99,778.77L1035.99,778.77z M1086.2,730.44c-2.36,2.36-5.17,3.54-8.43,3.54
			s-6.07-1.18-8.43-3.54c-2.36-2.36-3.53-5.17-3.53-8.43s1.18-6.08,3.53-8.43c2.36-2.36,5.17-3.53,8.43-3.53s6.07,1.18,8.43,3.53
			c2.36,2.36,3.53,5.17,3.53,8.43S1088.55,728.09,1086.2,730.44L1086.2,730.44z M1085.93,838.79h-16.31v-85.95h16.31V838.79
			L1085.93,838.79z M1188.24,855.93c-2.23,5.38-5.41,10.03-9.52,13.97c-4.11,3.93-9.06,6.98-14.86,9.16
			c-5.8,2.18-12.21,3.26-19.21,3.26c-8.22,0-15.74-1.15-22.57-3.45s-13.32-6.29-19.48-11.97l11.06-13.78
			c4.23,4.59,8.82,8.07,13.77,10.43c4.95,2.36,10.57,3.53,16.86,3.53c6.04,0,11.06-0.88,15.04-2.63c3.99-1.76,7.16-4.02,9.52-6.8
			s4.02-5.95,4.98-9.52s1.45-7.16,1.45-10.79v-12.69h-0.54c-3.14,5.2-7.4,9.04-12.78,11.52c-5.38,2.48-11.03,3.72-16.95,3.72
			c-6.28,0-12.11-1.12-17.49-3.36c-5.38-2.23-10-5.32-13.86-9.25c-3.87-3.93-6.89-8.58-9.06-13.96c-2.18-5.38-3.26-11.21-3.26-17.5
			c0-6.28,1.03-12.18,3.08-17.68c2.05-5.5,4.98-10.3,8.79-14.41c3.8-4.11,8.39-7.31,13.77-9.61s11.39-3.45,18.03-3.45
			c5.8,0,11.45,1.27,16.95,3.81s9.82,6.1,12.96,10.7h0.36v-12.33h16.31v85.23C1191.6,844.6,1190.47,850.55,1188.24,855.93
			L1188.24,855.93z M1173.29,783.76c-1.33-3.69-3.2-6.83-5.62-9.43s-5.38-4.65-8.88-6.16c-3.51-1.51-7.43-2.27-11.78-2.27
			s-8.28,0.76-11.78,2.27c-3.51,1.51-6.47,3.57-8.88,6.16c-2.42,2.6-4.29,5.74-5.62,9.43s-1.99,7.71-1.99,12.06
			c0,8.7,2.54,15.69,7.61,20.94c5.08,5.26,11.97,7.89,20.66,7.89c8.7,0,15.59-2.63,20.66-7.89c5.08-5.26,7.61-12.24,7.61-20.94
			C1175.28,791.46,1174.62,787.45,1173.29,783.76L1173.29,783.76z M1269.71,838.79v-50.78c0-3.99-0.54-7.4-1.63-10.25
			c-1.09-2.84-2.54-5.14-4.35-6.89c-1.81-1.75-3.9-3.02-6.25-3.81c-2.36-0.79-4.8-1.18-7.34-1.18c-3.38,0-6.53,0.54-9.42,1.63
			c-2.9,1.09-5.44,2.81-7.61,5.17c-2.18,2.36-3.87,5.35-5.08,8.98s-1.81,7.92-1.81,12.87v44.25h-16.31V701.7h16.31v64.38h0.36
			c2.05-4.59,5.62-8.31,10.69-11.15c5.08-2.84,10.94-4.26,17.58-4.26c4.11,0,8.07,0.64,11.87,1.9c3.8,1.27,7.13,3.24,9.97,5.9
			c2.84,2.66,5.1,6.07,6.8,10.24c1.69,4.17,2.54,9.1,2.54,14.78v55.31h-16.32V838.79z M1327.17,813.13
			c0.12,2.36,0.57,4.48,1.36,6.35c0.79,1.88,1.99,3.39,3.63,4.53c1.63,1.15,4.01,1.72,7.16,1.72c1.93,0,3.93-0.18,5.98-0.54
			c2.05-0.36,3.92-1.03,5.62-1.99v14.87c-1.93,1.09-4.44,1.84-7.52,2.27c-3.08,0.42-5.47,0.64-7.16,0.64
			c-6.29,0-11.15-0.88-14.59-2.63c-3.45-1.75-5.98-4.02-7.61-6.8c-1.63-2.78-2.6-5.89-2.9-9.34c-0.3-3.44-0.45-6.92-0.45-10.42V767
			h-18.85v-14.14h18.85v-24.12H1327v24.12h23.38V767H1327v38.99C1326.99,808.39,1327.05,810.78,1327.17,813.13L1327.17,813.13z
			 M1410.36,838.79V701.7h16.31v137.09L1410.36,838.79L1410.36,838.79z M1529.89,813.5c-2.36,5.51-5.59,10.28-9.7,14.33
			s-8.95,7.25-14.5,9.61c-5.56,2.36-11.54,3.54-17.95,3.54c-6.4,0-12.39-1.18-17.94-3.54c-5.56-2.36-10.4-5.56-14.5-9.61
			c-4.11-4.05-7.34-8.82-9.7-14.33c-2.36-5.5-3.53-11.39-3.53-17.68c0-6.28,1.18-12.15,3.53-17.59c2.36-5.44,5.59-10.21,9.7-14.32
			c4.1-4.11,8.94-7.35,14.5-9.7c5.56-2.36,11.54-3.53,17.94-3.53c6.4,0,12.39,1.18,17.95,3.53c5.55,2.36,10.39,5.59,14.5,9.7
			c4.1,4.11,7.34,8.88,9.7,14.32s3.53,11.31,3.53,17.59C1533.43,802.1,1532.25,808,1529.89,813.5L1529.89,813.5z M1514.03,783.76
			c-1.33-3.69-3.2-6.83-5.62-9.43s-5.38-4.65-8.88-6.16c-3.5-1.51-7.43-2.27-11.78-2.27s-8.28,0.76-11.78,2.27
			c-3.51,1.51-6.47,3.57-8.88,6.16c-2.42,2.6-4.29,5.74-5.62,9.43s-1.99,7.71-1.99,12.06s0.66,8.37,1.99,12.06s3.2,6.83,5.62,9.43
			s5.38,4.66,8.88,6.17s7.43,2.27,11.78,2.27s8.28-0.75,11.78-2.27c3.5-1.51,6.46-3.56,8.88-6.17c2.42-2.6,4.29-5.74,5.62-9.43
			s1.99-7.71,1.99-12.06C1516.03,791.46,1515.36,787.45,1514.03,783.76L1514.03,783.76z M1569.58,785.48
			c2.24,0.97,4.62,1.69,7.16,2.18s4.71,0.91,6.53,1.27c3.5,0.85,6.8,1.87,9.88,3.08s5.74,2.78,7.98,4.71
			c2.23,1.93,3.99,4.29,5.25,7.07c1.27,2.78,1.9,6.17,1.9,10.16c0,4.83-1.03,8.97-3.08,12.42c-2.06,3.44-4.71,6.25-7.97,8.43
			s-6.98,3.75-11.15,4.72c-4.17,0.96-8.37,1.45-12.59,1.45c-7.13,0-13.39-1.09-18.76-3.26c-5.38-2.18-10.18-6.17-14.41-11.97
			l12.33-10.15c2.65,2.66,5.62,5.02,8.88,7.07c3.26,2.06,7.25,3.08,11.97,3.08c2.05,0,4.14-0.21,6.25-0.64
			c2.11-0.42,3.99-1.09,5.62-1.99c1.63-0.91,2.96-2.06,3.99-3.45s1.54-2.99,1.54-4.8c0-2.42-0.76-4.41-2.27-5.98
			s-3.32-2.81-5.44-3.72c-2.11-0.91-4.35-1.63-6.7-2.18c-2.36-0.54-4.44-1-6.25-1.36c-3.5-0.84-6.83-1.81-9.97-2.9
			s-5.92-2.54-8.34-4.35c-2.42-1.81-4.35-4.11-5.8-6.89c-1.45-2.78-2.18-6.23-2.18-10.34c0-4.47,0.94-8.37,2.81-11.69
			c1.87-3.33,4.35-6.08,7.43-8.25c3.08-2.18,6.58-3.81,10.51-4.9s7.88-1.63,11.87-1.63c5.8,0,11.36,1.09,16.68,3.26
			c5.32,2.18,9.54,5.8,12.69,10.88l-12.69,9.61c-1.94-2.42-4.32-4.44-7.16-6.08c-2.84-1.63-6.31-2.45-10.42-2.45
			c-3.87,0-7.22,0.81-10.06,2.45c-2.84,1.63-4.26,4.02-4.26,7.16c0,2.54,0.81,4.6,2.45,6.17
			C1565.42,783.25,1567.35,784.51,1569.58,785.48L1569.58,785.48z M1643.71,785.48c2.23,0.97,4.62,1.69,7.16,2.18
			s4.71,0.91,6.53,1.27c3.5,0.85,6.8,1.87,9.88,3.08s5.74,2.78,7.97,4.71s3.99,4.29,5.26,7.07s1.9,6.17,1.9,10.16
			c0,4.83-1.03,8.97-3.08,12.42c-2.06,3.44-4.71,6.25-7.97,8.43s-6.98,3.75-11.15,4.72c-4.17,0.96-8.37,1.45-12.6,1.45
			c-7.13,0-13.38-1.09-18.76-3.26c-5.38-2.18-10.18-6.17-14.41-11.97l12.33-10.15c2.65,2.66,5.62,5.02,8.88,7.07
			c3.26,2.06,7.25,3.08,11.96,3.08c2.06,0,4.14-0.21,6.25-0.64c2.11-0.42,3.99-1.09,5.62-1.99c1.63-0.91,2.96-2.06,3.99-3.45
			c1.02-1.39,1.54-2.99,1.54-4.8c0-2.42-0.76-4.41-2.27-5.98s-3.32-2.81-5.44-3.72c-2.11-0.91-4.35-1.63-6.71-2.18
			c-2.36-0.54-4.44-1-6.25-1.36c-3.51-0.84-6.83-1.81-9.97-2.9s-5.92-2.54-8.34-4.35c-2.42-1.81-4.35-4.11-5.8-6.89
			c-1.45-2.78-2.18-6.23-2.18-10.34c0-4.47,0.94-8.37,2.81-11.69c1.87-3.33,4.35-6.08,7.43-8.25c3.08-2.18,6.58-3.81,10.51-4.9
			s7.88-1.63,11.87-1.63c5.8,0,11.36,1.09,16.68,3.26c5.32,2.18,9.54,5.8,12.69,10.88l-12.69,9.61c-1.93-2.42-4.32-4.44-7.16-6.08
			c-2.84-1.63-6.31-2.45-10.42-2.45c-3.87,0-7.22,0.81-10.06,2.45c-2.84,1.63-4.26,4.02-4.26,7.16c0,2.54,0.82,4.6,2.45,6.17
			C1639.54,783.25,1641.48,784.51,1643.71,785.48L1643.71,785.48z M1762.7,813.13c0.12,2.36,0.57,4.48,1.36,6.35
			c0.79,1.88,1.99,3.39,3.63,4.53c1.63,1.15,4.01,1.72,7.16,1.72c1.93,0,3.93-0.18,5.98-0.54c2.06-0.36,3.93-1.03,5.62-1.99v14.87
			c-1.93,1.09-4.44,1.84-7.52,2.27c-3.08,0.42-5.47,0.64-7.16,0.64c-6.28,0-11.14-0.88-14.59-2.63s-5.98-4.02-7.61-6.8
			c-1.63-2.78-2.6-5.89-2.9-9.34c-0.3-3.44-0.45-6.92-0.45-10.42V767h-18.85v-14.14h18.85v-24.12h16.31v24.12h23.38V767h-23.38
			v38.99C1762.52,808.39,1762.58,810.78,1762.7,813.13L1762.7,813.13z M1860.39,838.79v-50.78c0-3.99-0.54-7.4-1.63-10.25
			c-1.09-2.84-2.54-5.14-4.35-6.89c-1.81-1.75-3.9-3.02-6.25-3.81c-2.36-0.79-4.8-1.18-7.34-1.18c-3.38,0-6.52,0.54-9.42,1.63
			s-5.44,2.81-7.61,5.17c-2.18,2.36-3.87,5.35-5.08,8.98s-1.81,7.92-1.81,12.87v44.25h-16.31V701.7h16.31v64.38h0.37
			c2.05-4.59,5.62-8.31,10.69-11.15c5.08-2.84,10.94-4.26,17.58-4.26c4.11,0,8.07,0.64,11.87,1.9c3.8,1.27,7.13,3.24,9.97,5.9
			c2.84,2.66,5.1,6.07,6.8,10.24c1.69,4.17,2.53,9.1,2.53,14.78v55.31h-16.32V838.79z M1951.56,838.79
			c-0.36-4.35-0.54-8.7-0.54-13.06h-0.36c-3.62,5.56-7.91,9.49-12.87,11.79c-4.95,2.3-10.69,3.45-17.22,3.45
			c-3.99,0-7.79-0.54-11.42-1.63s-6.8-2.72-9.52-4.9c-2.72-2.18-4.87-4.86-6.43-8.07c-1.57-3.2-2.36-6.92-2.36-11.15
			c0-5.56,1.24-10.21,3.72-13.96s5.86-6.8,10.15-9.16s9.3-4.05,15.04-5.08s11.87-1.54,18.4-1.54h11.96v-3.63
			c0-2.18-0.42-4.35-1.27-6.53c-0.85-2.18-2.11-4.14-3.8-5.9c-1.69-1.75-3.81-3.14-6.35-4.17c-2.54-1.03-5.56-1.54-9.06-1.54
			c-3.14,0-5.89,0.3-8.24,0.91c-2.36,0.61-4.51,1.36-6.44,2.27c-1.93,0.91-3.69,1.97-5.25,3.17c-1.57,1.21-3.08,2.36-4.53,3.45
			l-9.79-10.15c4.59-4.23,9.91-7.4,15.95-9.52c6.04-2.11,12.08-3.17,18.12-3.17c6.28,0,11.69,0.79,16.22,2.36s8.25,3.69,11.15,6.35
			s5.04,5.71,6.43,9.16c1.39,3.45,2.08,7.04,2.08,10.79v43.89c0,3.02,0.06,5.8,0.18,8.34c0.12,2.54,0.3,4.96,0.54,7.25h-14.49
			L1951.56,838.79L1951.56,838.79z M1950.11,797.45h-8.7c-3.87,0-7.82,0.21-11.87,0.64c-4.05,0.42-7.73,1.24-11.06,2.45
			c-3.32,1.21-6.04,2.9-8.15,5.08c-2.12,2.18-3.17,4.96-3.17,8.34c0,4.96,1.66,8.52,4.98,10.7s7.82,3.26,13.5,3.26
			c4.47,0,8.27-0.75,11.42-2.27c3.14-1.51,5.68-3.47,7.61-5.89c1.93-2.42,3.32-5.1,4.17-8.07c0.84-2.96,1.27-5.89,1.27-8.8V797.45
			L1950.11,797.45z M2005.58,813.13c0.12,2.36,0.57,4.48,1.36,6.35c0.79,1.88,1.99,3.39,3.63,4.53c1.63,1.15,4.02,1.72,7.16,1.72
			c1.93,0,3.93-0.18,5.98-0.54c2.05-0.36,3.93-1.03,5.62-1.99v14.87c-1.93,1.09-4.44,1.84-7.52,2.27c-3.08,0.42-5.47,0.64-7.16,0.64
			c-6.28,0-11.15-0.88-14.59-2.63s-5.98-4.02-7.61-6.8c-1.63-2.78-2.6-5.89-2.9-9.34c-0.3-3.44-0.45-6.92-0.45-10.42V767h-18.85
			v-14.14h18.85v-24.12h16.31v24.12h23.38V767h-23.38v38.99C2005.39,808.39,2005.45,810.78,2005.58,813.13L2005.58,813.13z
			 M2133.54,715.3c-1.57-0.6-3.08-1.03-4.53-1.27s-3.02-0.36-4.71-0.36c-3.02,0-5.44,0.45-7.25,1.36s-3.23,2.21-4.26,3.9
			s-1.69,3.72-2,6.08c-0.3,2.36-0.45,5.05-0.45,8.07v19.77h19.4v14.14h-19.57v71.81h-16.31v-71.81h-18.49v-14.14h18.49v-19.22
			c0-11.48,2.21-20.04,6.62-25.66c4.41-5.62,11.99-8.43,22.75-8.43c1.81,0,3.71,0.06,5.71,0.18s4.14,0.48,6.44,1.09L2133.54,715.3
			L2133.54,715.3z M2159.36,730.44c-2.36,2.36-5.16,3.54-8.43,3.54c-3.26,0-6.07-1.18-8.43-3.54c-2.36-2.36-3.53-5.17-3.53-8.43
			s1.18-6.08,3.53-8.43c2.36-2.36,5.17-3.53,8.43-3.53s6.07,1.18,8.43,3.53c2.36,2.36,3.53,5.17,3.53,8.43
			S2161.72,728.09,2159.36,730.44L2159.36,730.44z M2159.09,838.79h-16.31v-85.95h16.31V838.79L2159.09,838.79z M2201.5,813.13
			c0.12,2.36,0.57,4.48,1.36,6.35c0.78,1.88,1.99,3.39,3.63,4.53c1.63,1.15,4.02,1.72,7.16,1.72c1.93,0,3.93-0.18,5.98-0.54
			s3.93-1.03,5.62-1.99v14.87c-1.94,1.09-4.44,1.84-7.52,2.27c-3.08,0.42-5.47,0.64-7.16,0.64c-6.28,0-11.15-0.88-14.59-2.63
			c-3.44-1.75-5.98-4.02-7.61-6.8c-1.63-2.78-2.6-5.89-2.9-9.34c-0.3-3.44-0.45-6.92-0.45-10.42V767h-18.85v-14.14h18.85v-24.12
			h16.31v24.12h23.38V767h-23.38v38.99C2201.32,808.39,2201.38,810.78,2201.5,813.13L2201.5,813.13z M2261.41,785.48
			c2.23,0.97,4.62,1.69,7.16,2.18c2.54,0.49,4.71,0.91,6.53,1.27c3.51,0.85,6.8,1.87,9.88,3.08c3.08,1.21,5.74,2.78,7.97,4.71
			s3.99,4.29,5.26,7.07s1.9,6.17,1.9,10.16c0,4.83-1.03,8.97-3.08,12.42c-2.06,3.44-4.71,6.25-7.97,8.43s-6.98,3.75-11.15,4.72
			c-4.17,0.96-8.37,1.45-12.6,1.45c-7.13,0-13.39-1.09-18.76-3.26c-5.38-2.18-10.18-6.17-14.41-11.97l12.32-10.15
			c2.66,2.66,5.62,5.02,8.88,7.07c3.26,2.06,7.25,3.08,11.96,3.08c2.05,0,4.14-0.21,6.25-0.64c2.11-0.42,3.99-1.09,5.62-1.99
			c1.63-0.91,2.96-2.06,3.99-3.45s1.54-2.99,1.54-4.8c0-2.42-0.76-4.41-2.26-5.98c-1.51-1.57-3.33-2.81-5.44-3.72
			c-2.12-0.91-4.35-1.63-6.71-2.18c-2.36-0.54-4.44-1-6.25-1.36c-3.51-0.84-6.83-1.81-9.97-2.9s-5.92-2.54-8.34-4.35
			c-2.42-1.81-4.35-4.11-5.8-6.89s-2.17-6.23-2.17-10.34c0-4.47,0.94-8.37,2.81-11.69c1.87-3.33,4.35-6.08,7.43-8.25
			c3.08-2.18,6.59-3.81,10.51-4.9c3.93-1.09,7.89-1.63,11.87-1.63c5.8,0,11.36,1.09,16.68,3.26c5.31,2.18,9.54,5.8,12.69,10.88
			l-12.69,9.61c-1.94-2.42-4.32-4.44-7.16-6.08c-2.84-1.63-6.32-2.45-10.42-2.45c-3.87,0-7.22,0.81-10.06,2.45
			c-2.84,1.63-4.26,4.02-4.26,7.16c0,2.54,0.81,4.6,2.45,6.17C2257.24,783.25,2259.17,784.51,2261.41,785.48L2261.41,785.48z
			 M2334.81,836.34c-2.35,2.36-5.17,3.54-8.43,3.54s-6.07-1.18-8.43-3.54c-2.35-2.36-3.53-5.17-3.53-8.43s1.18-6.08,3.53-8.43
			c2.36-2.36,5.17-3.53,8.43-3.53s6.07,1.18,8.43,3.53c2.36,2.36,3.53,5.17,3.53,8.43C2338.34,831.18,2337.16,833.99,2334.81,836.34
			L2334.81,836.34z M2364.31,725.86v35.22h-5.47v-35.22h-12.99v-5.13h31.45v5.13H2364.31L2364.31,725.86z M2417.29,761.08v-33.17
			h-0.11l-13.62,33.17h-3.65l-13.61-33.17h-0.11v33.17h-5.47v-40.35h8.15l12.82,30.55h0.23l12.7-30.55h8.14v40.35H2417.29
			L2417.29,761.08z"/>
	</g>
</g>
</svg>
