<?xml version="1.0" encoding="utf-8"?>
<!-- Generator: Adobe Illustrator 23.0.3, SVG Export Plug-In . SVG Version: 6.00 Build 0)  -->
<svg version="1.1" id="Layer_1" xmlns="http://www.w3.org/2000/svg" xmlns:xlink="http://www.w3.org/1999/xlink" x="0px" y="0px"
	 viewBox="0 0 99 100" style="enable-background:new 0 0 99 100;" xml:space="preserve">
<style type="text/css">
	.st0{fill:#6765AD;}
	.st1{clip-path:url(#SVGID_2_);}
	.st2{clip-path:url(#SVGID_4_);fill:#D1D5D6;}
	.st3{clip-path:url(#SVGID_4_);fill:#C9C9C9;}
	.st4{clip-path:url(#SVGID_4_);fill:#F1F1F1;}
	.st5{clip-path:url(#SVGID_4_);fill:#FFA932;}
	.st6{clip-path:url(#SVGID_4_);fill:#FF9400;}
</style>
<circle class="st0" cx="49.6" cy="49.7" r="47.9"/>
<g id="Reports_1_">
	<g>
		<defs>
			<rect id="SVGID_1_" x="15.3" y="23.4" width="66.2" height="56.1"/>
		</defs>
		<clipPath id="SVGID_2_">
			<use xlink:href="#SVGID_1_"  style="overflow:visible;"/>
		</clipPath>
		<g class="st1">
			<defs>
				<rect id="SVGID_3_" x="15.3" y="23.4" width="66.2" height="56.1"/>
			</defs>
			<clipPath id="SVGID_4_">
				<use xlink:href="#SVGID_3_"  style="overflow:visible;"/>
			</clipPath>
			<path class="st2" d="M27.3,35.7h-3.2h-8.9v-6.3c0-3.2,2.6-5.8,5.8-5.8c3.5,0,6.3,2.8,6.3,6.3V35.7z"/>
			<path class="st3" d="M24.2,35.7h3.2V30c0-3.5-2.8-6.3-6.3-6.3C21,23.7,25.6,24.8,24.2,35.7"/>
			<path class="st4" d="M27,35.7V30c0-3.5-2.8-6.3-6.3-6.3h43.7c3.5,0,6.3,2.8,6.3,6.3v5.8l-0.1,31.1v5.8c0,3.5,1.1,6.2,4.5,6.2
				l-5.2,0.1H33.1c-3.5,0-6.3-2.8-6.3-6.3v-5.8L27,35.7z"/>
			<path class="st5" d="M62.1,68.7H35.7c-1.5,0-2.8-1.3-2.8-2.8c0-1.5,1.3-2.8,2.8-2.8h26.4c1.5,0,2.8,1.3,2.8,2.8
				C64.9,67.5,63.7,68.7,62.1,68.7"/>
			<path class="st5" d="M62.1,61.7H35.7c-1.5,0-2.8-1.3-2.8-2.8s1.3-2.8,2.8-2.8h26.4c1.5,0,2.8,1.3,2.8,2.8S63.7,61.7,62.1,61.7"/>
			<path class="st5" d="M62.1,54.8H35.7c-1.5,0-2.8-1.3-2.8-2.8c0-1.5,1.3-2.8,2.8-2.8h26.4c1.5,0,2.8,1.3,2.8,2.8
				C64.9,53.5,63.7,54.8,62.1,54.8"/>
			<path class="st2" d="M81.4,66.8v5.8c0,3.5-2.8,6.3-6.3,6.3H32.9c3.5,0,6.3-2.8,6.3-6.3v-5.8H81.4z"/>
			<path class="st6" d="M63.4,36.7c-2.3,0-4.1,1.8-4.1,4.1c0,2.3,1.8,4.1,4.1,4.1c2.3,0,4.1-1.9,4.1-4.1
				C67.5,38.5,65.7,36.7,63.4,36.7 M63.4,43.2c-1.3,0-2.4-1.1-2.4-2.4c0-1.3,1.1-2.4,2.4-2.4c1.3,0,2.4,1.1,2.4,2.4
				C65.8,42.1,64.7,43.2,63.4,43.2"/>
			<path class="st6" d="M34.5,31.1c-2.3,0-4.1,1.8-4.1,4.1c0,2.3,1.8,4.1,4.1,4.1s4.1-1.9,4.1-4.1C38.6,33,36.7,31.1,34.5,31.1
				 M34.5,37.6c-1.3,0-2.4-1.1-2.4-2.4c0-1.3,1.1-2.4,2.4-2.4s2.4,1.1,2.4,2.4C36.8,36.6,35.8,37.6,34.5,37.6"/>
			<path class="st6" d="M48.9,36.7c-2.3,0-4.1,1.8-4.1,4.1c0,2.3,1.8,4.1,4.1,4.1c2.3,0,4.1-1.9,4.1-4.1
				C53.1,38.5,51.2,36.7,48.9,36.7 M48.9,43.2c-1.3,0-2.4-1.1-2.4-2.4c0-1.3,1.1-2.4,2.4-2.4c1.3,0,2.4,1.1,2.4,2.4
				C51.3,42.1,50.2,43.2,48.9,43.2"/>
			<rect x="52" y="40.8" class="st6" width="8.4" height="1.6"/>
			
				<rect x="40.6" y="33.6" transform="matrix(0.3369 -0.9416 0.9416 0.3369 -8.4637 64.2567)" class="st6" width="1.6" height="9.1"/>
			<path class="st3" d="M79.8,76.8c-1.1,1.2-2.8,2-4.6,2H32.9c1.8,0,3.5-0.8,4.6-2"/>
		</g>
	</g>
</g>
</svg>
